# xmcd
#
# Track frame offsets:
#	150
#	17751
#	31449
#	32466
#	42225
#	59283
#	70607
#	86842
#	101595
#	112719
#	122963
#	133765
#	147993
#	165240
#	179861
#	197497
#	215134
#	230020
#	251607
#	268098
#	282437
#	300673
#	316289
#	330834
#	344966
#
# Disc length: 4750 seconds
#
# Revision: 0
# Processed by: cddbd v1.5.1PL0 Copyright (c) Steve Scherf et al.
# Submitted via: dBpowerAMP V4.0
#
DISCID=76128c19
DTITLE=KELVIS DURAN - AO VIVO
DYEAR=2005
DGENRE=BREGA
TTITLE0=EU NÃO SOU DE PEDRA
TTITLE1=PORQUE TE AMO
TTITLE2=ABERTURA
TTITLE3=DEUSA DOS MEUS SONHOS
TTITLE4=FESTA NO APE
TTITLE5=RAPARIGUEIRO
TTITLE6=TE AMO DEMAIS
TTITLE7=SOMOS LOUCOS
TTITLE8=HÓ! YES
TTITLE9=METI
TTITLE10=GOOD BY AMOR
TTITLE11=SACANAGEM
TTITLE12=EU NÃO SOU DE PEDRA
TTITLE13=ESTANDO COM ELA
TTITLE14=CORAÇÃO
TTITLE15=PLANETA DE CORES
TTITLE16=MANCHETE DE JORNAIS
TTITLE17=ASAS PARTIDAS
TTITLE18=VOCÊ FUGIU DE MIM
TTITLE19=NÃO PEGUE ESSE AVIÃO
TTITLE20=AVISE A ELA
TTITLE21=DUAS PESSOAS NUAS
TTITLE22=TODO AMOR QUE EU TE DEI
TTITLE23=CHULEP CHULEP
TTITLE24=TOMA PIRRAIA
EXTD=
EXTT0=
EXTT1=
EXTT2=
EXTT3=
EXTT4=
EXTT5=
EXTT6=
EXTT7=
EXTT8=
EXTT9=
EXTT10=
EXTT11=
EXTT12=
EXTT13=
EXTT14=
EXTT15=
EXTT16=
EXTT17=
EXTT18=
EXTT19=
EXTT20=
EXTT21=
EXTT22=
EXTT23=
EXTT24=
PLAYORDER=
